<svg width="160" height="182" viewBox="0 0 160 182" fill="none" xmlns="http://www.w3.org/2000/svg">
<path d="M100.402 42.3C95.7645 37.5755 88.3075 34.181 81.685 33.348C76.7055 32.719 72.6095 34.7795 69.6295 38.783C52.105 62.3325 90.911 78.2295 88.0305 101.454C86.7805 111.542 74.0225 109.302 68.0435 113.607C59.9775 119.414 67.375 128.943 56.6215 133.111" stroke="#330F0A" stroke-width="4" stroke-linecap="round" stroke-linejoin="round"/>
<path d="M74.4065 69.6965C90.3685 76.8015 115.625 76.6685 127.08 61.9675" stroke="#330F0A" stroke-width="4" stroke-linecap="round" stroke-linejoin="round"/>
<path d="M130.501 64.0195C146.656 72.286 153.76 84.302 153.76 102.327" stroke="#330F0A" stroke-width="4" stroke-linecap="round" stroke-linejoin="round"/>
<path d="M153.075 101.643C151.141 91.658 127.39 80.6605 129.235 96.9655" stroke="#330F0A" stroke-width="4" stroke-linecap="round" stroke-linejoin="round"/>
<path d="M126.398 96.8545C122.152 91.476 105.191 84.9455 105.191 96.1755" stroke="#330F0A" stroke-width="4" stroke-linecap="round" stroke-linejoin="round"/>
<path d="M66.8835 72.177C51.3545 76.0315 34.9145 71.8415 23.1027 61.9675" stroke="#330F0A" stroke-width="4" stroke-linecap="round" stroke-linejoin="round"/>
<path d="M21.0493 61.9675C8.71705 64.699 3.402 89.435 7.2135 100.275" stroke="#330F0A" stroke-width="4" stroke-linecap="round" stroke-linejoin="round"/>
<path d="M57.305 93.0865C43.3595 83.6985 43.516 94.546 38.1875 97.179C34.817 98.8445 31.4245 92.75 27.6741 93.0865C21.0728 93.6785 16.2462 97.8105 10.7882 100.96" stroke="#330F0A" stroke-width="4" stroke-linecap="round" stroke-linejoin="round"/>
<path d="M89.687 30.5C88.9185 33.183 90.76 33.5435 92.1415 35.2885" stroke="#330F0A" stroke-width="4" stroke-linecap="round" stroke-linejoin="round"/>
</svg>
