<svg width="160" height="170" viewBox="0 0 160 170" fill="none" xmlns="http://www.w3.org/2000/svg">
<path d="M59.0548 126.755C60.864 120.27 7.64539 31.7523 32.4995 44.1056C39.9744 47.8206 43.1279 57.5407 47.4743 64.4529" stroke="#330F0A" stroke-width="4" stroke-linecap="round" stroke-linejoin="round"/>
<path d="M63.1968 90.6997C53.5693 93.5306 46.7442 54.6019 57.175 56.6895C58.4568 56.947 60.5767 62.4431 61.0454 62.2867C62.0807 61.9425 62.513 54.5488 63.6269 53.2453C68.987 46.9855 73.0797 52.8148 77.388 53.6762C80.703 54.3405 85.9747 40.9553 93.3 51.955C94.5763 53.8713 104.044 71.9763 104.481 71.757C108.333 69.8301 119.637 42.925 131.684 51.955C134.452 54.0303 128.989 66.0722 124.985 75.5425C116.549 95.4971 93.4687 119.042 92.4393 124.71" stroke="#330F0A" stroke-width="4" stroke-linecap="round" stroke-linejoin="round"/>
<path d="M61.9732 63.1159C67.3401 103.753 86.7014 87.3957 76.4474 57.2148" stroke="#330F0A" stroke-width="4" stroke-linecap="round" stroke-linejoin="round"/>
<path d="M79.5461 69.3234C87.9743 95.146 94.8206 76.2743 90.6773 62.2179" stroke="#330F0A" stroke-width="4" stroke-linecap="round" stroke-linejoin="round"/>
</svg>
