<svg width="150" height="150" viewBox="0 0 150 150" fill="none" xmlns="http://www.w3.org/2000/svg">
<path d="M124.125 50.5631C124.125 53.1881 123.938 55.7506 123.625 58.1881C120.75 56.9381 117.625 56.2506 114.313 56.2506C106.688 56.2506 99.9375 59.938 95.75 65.5631C91.5 59.938 84.75 56.2506 77.125 56.2506C64.3125 56.2506 53.9375 66.6881 53.9375 79.6256C53.9375 96.3756 62.8125 109.188 72.6875 117.876C72.375 118.063 72.0625 118.126 71.75 118.251C69.875 118.938 66.75 118.938 64.875 118.251C48.6875 112.688 12.5 89.6881 12.5 50.5631C12.5 33.3131 26.3749 19.3756 43.4999 19.3756C53.6874 19.3756 62.6875 24.2506 68.3125 31.8131C74 24.2506 83 19.3756 93.125 19.3756C110.25 19.3756 124.125 33.3131 124.125 50.5631Z" stroke="#330F0A" stroke-width="4" stroke-linecap="round" stroke-linejoin="round"/>
<path d="M137.506 79.625C137.506 108.875 110.443 126.125 98.3181 130.25C96.8806 130.75 94.5675 130.75 93.13 130.25C87.9425 128.5 80.0056 124.312 72.6931 117.875C62.8181 109.187 53.9429 96.375 53.9429 79.625C53.9429 66.6875 64.3181 56.25 77.1306 56.25C84.7556 56.25 91.5056 59.9374 95.7556 65.5625C99.9431 59.9374 106.693 56.25 114.318 56.25C117.631 56.25 120.756 56.9375 123.631 58.1875C131.818 61.8125 137.506 70 137.506 79.625Z" stroke="#330F0A" stroke-width="4" stroke-linecap="round" stroke-linejoin="round"/>
</svg>
