<svg width="40" height="40" viewBox="0 0 40 40" fill="none" xmlns="http://www.w3.org/2000/svg">
<path d="M0 40L2.87223 29.3385C0.555848 25.1853 -0.180089 20.3388 0.799462 15.6885C1.77901 11.0381 4.40835 6.89581 8.20497 4.02164C12.0016 1.14747 16.7109 -0.265758 21.4686 0.0412894C26.2263 0.348337 30.7134 2.35506 34.1064 5.69323C37.4994 9.03139 39.5707 13.4771 39.9403 18.2145C40.31 22.9519 38.953 27.6633 36.1186 31.4841C33.2841 35.3049 29.1623 37.9788 24.5093 39.0151C19.8564 40.0515 14.9846 39.3808 10.7878 37.1261L0 40ZM11.308 33.1365L11.9752 33.531C15.015 35.3267 18.5654 36.0698 22.0732 35.6445C25.5811 35.2191 28.8492 33.6493 31.3683 31.1795C33.8875 28.7097 35.5161 25.4788 36.0005 21.9902C36.4848 18.5016 35.7977 14.9513 34.0461 11.8925C32.2945 8.8338 29.577 6.43844 26.3168 5.07974C23.0567 3.72104 19.4372 3.47533 16.0223 4.38089C12.6075 5.28646 9.58907 7.29244 7.43753 10.0862C5.28599 12.88 4.12217 16.3047 4.12741 19.8265C4.12455 22.7467 4.93487 25.6104 6.46816 28.0988L6.88656 28.7862L5.28083 34.7369L11.308 33.1365Z" fill="#F4FDAF"/>
<path fill-rule="evenodd" clip-rule="evenodd" d="M27.5007 22.5641C27.1096 22.2497 26.6516 22.0284 26.1617 21.9171C25.6718 21.8058 25.1629 21.8074 24.6737 21.9217C23.9387 22.226 23.4637 23.3756 22.9888 23.9503C22.8887 24.0881 22.7415 24.1848 22.5749 24.2221C22.4084 24.2594 22.2339 24.2349 22.0842 24.1532C19.3932 23.1028 17.1377 21.1765 15.6839 18.6872C15.5598 18.5318 15.5012 18.3346 15.5201 18.137C15.5391 17.9394 15.6343 17.7569 15.7856 17.6278C16.3153 17.1052 16.7043 16.4578 16.9164 15.7457C16.9635 14.9602 16.783 14.1777 16.3963 13.4917C16.0973 12.5298 15.5283 11.6734 14.7566 11.0235C14.3586 10.8451 13.9172 10.7853 13.4858 10.8513C13.0544 10.9173 12.6514 11.1062 12.3254 11.3954C11.7594 11.8821 11.3101 12.4891 11.0107 13.1718C10.7113 13.8545 10.5693 14.5954 10.5953 15.34C10.597 15.7581 10.6502 16.1744 10.7536 16.5797C11.0162 17.5533 11.42 18.4835 11.9522 19.3409C12.3362 19.9976 12.7552 20.6334 13.2074 21.2455C14.6769 23.2561 16.5242 24.9631 18.6465 26.272C19.7116 26.9371 20.8499 27.4778 22.0389 27.8836C23.2741 28.4416 24.6379 28.6558 25.9854 28.5035C26.7532 28.3876 27.4806 28.0855 28.1037 27.6237C28.7268 27.1619 29.2265 26.5545 29.5587 25.855C29.754 25.4324 29.8132 24.96 29.7284 24.5026C29.5248 23.5671 28.2696 23.0149 27.5007 22.5641Z" fill="#F4FDAF"/>
</svg>
