<svg width="150" height="150" viewBox="0 0 150 150" fill="none" xmlns="http://www.w3.org/2000/svg">
<path d="M107.438 86.0625C107.707 88.1353 107.853 90.2223 107.875 92.3125C107.875 101.398 105.181 110.28 100.133 117.834C95.0855 125.388 87.911 131.276 79.517 134.753C71.1231 138.23 61.8866 139.14 52.9756 137.367C44.0646 135.595 35.8793 131.22 29.4548 124.795C23.0303 118.371 18.6552 110.185 16.8827 101.274C15.1102 92.3635 16.0199 83.127 19.4968 74.733C22.9737 66.339 28.8616 59.1645 36.416 54.1169C43.9704 49.0692 52.8519 46.375 61.9375 46.375C66.3786 46.3842 70.7965 47.0153 75.0625 48.25" stroke="#330F0A" stroke-width="4" stroke-miterlimit="10"/>
<path d="M73.25 12C81.751 23.3597 87.2548 36.6771 89.2537 50.7239C91.2526 64.7708 89.6822 79.0948 84.6875 92.375C67.6875 138.25 52 137.188 52 137.188" stroke="#330F0A" stroke-width="4" stroke-miterlimit="10"/>
<path d="M125.063 12C125.063 12 142.313 29.1875 130.813 46.4375C119.313 63.6875 96.375 57.875 96.375 57.875C96.375 57.875 90.625 40.6875 102.125 29.1875C111.188 20.125 119.375 23.4375 125.063 12Z" stroke="#330F0A" stroke-width="4" stroke-miterlimit="10"/>
</svg>
