<svg width="350" height="400" viewBox="0 0 350 400" fill="none" xmlns="http://www.w3.org/2000/svg">
<g opacity="0.5" clip-path="url(#clip0_183_722)">
<g opacity="0.5" filter="url(#filter0_f_183_722)">
<path d="M67.6875 396.875C53 396.875 41.125 385 41.125 370.313V241.25H60.1875V370C60.1875 374.063 63.625 377.5 67.6875 377.5H289.562C293.625 377.5 297.062 374.063 297.062 370V245.625H316.125V370.313C316.125 385 304.25 396.875 289.562 396.875H67.6875Z" fill="#A3B275"/>
</g>
<g opacity="0.5" filter="url(#filter1_f_183_722)">
<path d="M42.0625 242.188V370C42.0625 384.062 53.625 395.625 67.6875 395.625H289.562C303.625 395.625 315.188 384.375 315.188 370V246.563H298V370.312C298 375 294.25 378.75 289.562 378.75H67.6875C63 378.75 59.25 375 59.25 370.312V242.188H42.0625Z" fill="#A3B275"/>
</g>
<g opacity="0.5" filter="url(#filter2_f_183_722)">
<path d="M177.688 143.125H196.75V388.125H177.688V143.125Z" fill="#A3B275"/>
</g>
<g opacity="0.5" filter="url(#filter3_f_183_722)">
<path d="M195.5 387.188V144.062H178.312V387.188H195.5Z" fill="#A3B275"/>
</g>
<g opacity="0.5" filter="url(#filter4_f_183_722)">
<path d="M50.5 247.5C26.4375 247.5 7.0625 227.812 7.0625 204.062V134.688H306.438C330.5 134.688 349.875 154.375 349.875 178.125V247.188H50.5V247.5ZM26.125 203.75C26.125 217.5 37.0625 228.438 50.8125 228.438H331.438V178.438C331.438 164.688 320.5 153.75 306.75 153.75H26.125V203.75Z" fill="#A3B275"/>
</g>
<g opacity="0.5" filter="url(#filter5_f_183_722)">
<path d="M16.4375 152.812H306.438C320.5 152.812 332.062 164.375 332.062 178.437V238.125L340.5 229.687H50.5C36.4375 229.687 24.875 218.125 24.875 204.062V144.062L16.4375 152.812ZM16.4375 135.625H8V203.75C8 227.188 27.0625 246.25 50.5 246.25H348.938V178.437C348.938 155 329.875 135.937 306.438 135.937H16.4375V135.625Z" fill="#A3B275"/>
</g>
<g opacity="0.5" filter="url(#filter6_f_183_722)">
<path d="M152.062 153.75V109.062H222.063V153.437H152.062V153.75ZM203.313 134.687V128.125H170.813V134.687H203.313Z" fill="#A3B275"/>
</g>
<g opacity="0.5" filter="url(#filter7_f_183_722)">
<path d="M161.437 127.188H212.687L204.25 118.75V144.375L212.687 135.937H161.437L169.875 144.375V118.75L161.437 127.188ZM161.437 110H153V152.813H221.125V110.312H161.437V110Z" fill="#A3B275"/>
</g>
<g opacity="0.5" filter="url(#filter8_f_183_722)">
<path d="M84.875 150.312C83.9375 149.062 82.375 147.188 80.1875 144.375C76.4375 139.375 73 134.375 70.1875 129.688C66.4375 124.062 63.625 118.438 61.125 113.438C53 96.25 52.375 83.75 59.25 74.6875C74.875 53.75 103.313 36.875 122.375 36.875C131.75 36.875 142.063 44.6875 158.625 64.6875C161.75 68.4375 164.875 72.5 168.313 76.875C173.625 84.375 179.875 92.8125 186.125 101.875C188.313 105 190.188 107.812 191.75 110.312C192.688 111.875 194.25 114.375 194.25 114.375L178.313 124.688C178.313 124.688 176.75 122.188 175.813 120.938C174.563 118.438 172.688 115.625 170.5 112.5C164.25 103.75 158.313 95.3125 152.688 88.125C149.563 84.0625 146.438 80 143.625 76.5625C132.063 62.5 123.625 55.625 122.063 55.625C109.25 55.625 85.8125 70.3125 74.25 85.9375C72.6875 88.125 73.3125 94.6875 78.3125 105.313C80.5 109.688 83 114.375 86.125 119.375C88.9375 123.75 92.0625 128.438 95.5 132.812C97.375 135.312 98.9375 137.188 99.5625 138.125L100.188 138.75L85.5 150.625L84.875 150.312Z" fill="#A3B275"/>
</g>
<g opacity="0.5" filter="url(#filter9_f_183_722)">
<path d="M180.5 114.062L194.875 123.438C195.188 122.812 195.813 121.875 196.75 120.312C198.313 117.812 200.187 115 202.375 112.188C208 103.75 214.25 95.3125 220.188 87.5C223.313 83.4375 226.438 79.375 229.563 75.9375C240.5 62.8125 249.875 54.6875 252.062 54.6875C265.5 54.6875 288.625 69.375 300.812 85.3125C302.687 87.8125 301.75 95.3125 296.75 105.625C294.562 110 292.062 115 288.938 120C286.125 124.688 282.688 129.375 279.562 133.438C277.688 135.938 276.125 137.813 275.5 138.75L288.625 149.688C289.563 148.438 291.125 146.562 293.313 143.75C296.75 139.062 300.188 134.062 303.312 129.062C306.75 123.438 309.875 118.125 312.375 112.812C319.562 97.1875 321.438 84.375 314.562 75C298.937 55.3125 270.812 37.5 251.438 37.5C241.75 37.5 230.812 47.1875 215.812 65C212.687 68.75 209.563 72.8125 206.125 77.1875C199.875 85.3125 193.937 93.75 188 102.5C185.812 105.625 183.937 108.438 182.375 110.938C181.437 112.188 180.812 113.438 180.5 114.062Z" fill="#A3B275"/>
</g>
</g>
<defs>
<filter id="filter0_f_183_722" x="37.125" y="237.25" width="283" height="163.625" filterUnits="userSpaceOnUse" color-interpolation-filters="sRGB">
<feFlood flood-opacity="0" result="BackgroundImageFix"/>
<feBlend mode="normal" in="SourceGraphic" in2="BackgroundImageFix" result="shape"/>
<feGaussianBlur stdDeviation="2" result="effect1_foregroundBlur_183_722"/>
</filter>
<filter id="filter1_f_183_722" x="38.0625" y="238.188" width="281.125" height="161.438" filterUnits="userSpaceOnUse" color-interpolation-filters="sRGB">
<feFlood flood-opacity="0" result="BackgroundImageFix"/>
<feBlend mode="normal" in="SourceGraphic" in2="BackgroundImageFix" result="shape"/>
<feGaussianBlur stdDeviation="2" result="effect1_foregroundBlur_183_722"/>
</filter>
<filter id="filter2_f_183_722" x="173.688" y="139.125" width="27.0625" height="253" filterUnits="userSpaceOnUse" color-interpolation-filters="sRGB">
<feFlood flood-opacity="0" result="BackgroundImageFix"/>
<feBlend mode="normal" in="SourceGraphic" in2="BackgroundImageFix" result="shape"/>
<feGaussianBlur stdDeviation="2" result="effect1_foregroundBlur_183_722"/>
</filter>
<filter id="filter3_f_183_722" x="174.312" y="140.062" width="25.1875" height="251.125" filterUnits="userSpaceOnUse" color-interpolation-filters="sRGB">
<feFlood flood-opacity="0" result="BackgroundImageFix"/>
<feBlend mode="normal" in="SourceGraphic" in2="BackgroundImageFix" result="shape"/>
<feGaussianBlur stdDeviation="2" result="effect1_foregroundBlur_183_722"/>
</filter>
<filter id="filter4_f_183_722" x="3.0625" y="130.688" width="350.812" height="120.812" filterUnits="userSpaceOnUse" color-interpolation-filters="sRGB">
<feFlood flood-opacity="0" result="BackgroundImageFix"/>
<feBlend mode="normal" in="SourceGraphic" in2="BackgroundImageFix" result="shape"/>
<feGaussianBlur stdDeviation="2" result="effect1_foregroundBlur_183_722"/>
</filter>
<filter id="filter5_f_183_722" x="4" y="131.625" width="348.938" height="118.625" filterUnits="userSpaceOnUse" color-interpolation-filters="sRGB">
<feFlood flood-opacity="0" result="BackgroundImageFix"/>
<feBlend mode="normal" in="SourceGraphic" in2="BackgroundImageFix" result="shape"/>
<feGaussianBlur stdDeviation="2" result="effect1_foregroundBlur_183_722"/>
</filter>
<filter id="filter6_f_183_722" x="148.062" y="105.062" width="78" height="52.6875" filterUnits="userSpaceOnUse" color-interpolation-filters="sRGB">
<feFlood flood-opacity="0" result="BackgroundImageFix"/>
<feBlend mode="normal" in="SourceGraphic" in2="BackgroundImageFix" result="shape"/>
<feGaussianBlur stdDeviation="2" result="effect1_foregroundBlur_183_722"/>
</filter>
<filter id="filter7_f_183_722" x="149" y="106" width="76.125" height="50.8125" filterUnits="userSpaceOnUse" color-interpolation-filters="sRGB">
<feFlood flood-opacity="0" result="BackgroundImageFix"/>
<feBlend mode="normal" in="SourceGraphic" in2="BackgroundImageFix" result="shape"/>
<feGaussianBlur stdDeviation="2" result="effect1_foregroundBlur_183_722"/>
</filter>
<filter id="filter8_f_183_722" x="50.5234" y="32.875" width="147.727" height="121.75" filterUnits="userSpaceOnUse" color-interpolation-filters="sRGB">
<feFlood flood-opacity="0" result="BackgroundImageFix"/>
<feBlend mode="normal" in="SourceGraphic" in2="BackgroundImageFix" result="shape"/>
<feGaussianBlur stdDeviation="2" result="effect1_foregroundBlur_183_722"/>
</filter>
<filter id="filter9_f_183_722" x="176.5" y="33.5" width="146.351" height="120.188" filterUnits="userSpaceOnUse" color-interpolation-filters="sRGB">
<feFlood flood-opacity="0" result="BackgroundImageFix"/>
<feBlend mode="normal" in="SourceGraphic" in2="BackgroundImageFix" result="shape"/>
<feGaussianBlur stdDeviation="2" result="effect1_foregroundBlur_183_722"/>
</filter>
<clipPath id="clip0_183_722">
<rect width="400" height="400" fill="white" transform="translate(-50)"/>
</clipPath>
</defs>
</svg>
