<svg width="39" height="40" viewBox="0 0 39 40" fill="none" xmlns="http://www.w3.org/2000/svg">
<path d="M31.1881 22.625V25C31.1881 26.25 30.9406 27.625 30.5693 28.75C32.302 28.75 33.6634 27.375 33.6634 25.625C33.6634 24.125 32.5495 22.875 31.1881 22.625Z" fill="black"/>
<path d="M8.91089 22.75C11.1386 21.625 14.9752 20.5 19.3069 22.625C23.6386 24.75 27.3515 23.625 28.7129 23V20H8.91089V22.75Z" fill="#FAF5E4"/>
<path d="M18.1931 24.875C13.8614 22.75 10.1485 24.75 8.91089 25.625C9.28218 30.875 13.6139 35 18.9356 34.875C22.6485 34.875 25.8663 32.75 27.599 29.625C27.599 29.5 27.7228 29.25 27.8465 29.125C28.3416 28.125 28.5891 26.875 28.7129 25.625C27.599 25.875 26.1139 26.25 24.3812 26.25C22.5248 26.25 20.4208 26 18.1931 24.875Z" fill="#A3B275"/>
<path d="M31.1881 20.125V18.75C31.1881 18 30.6931 17.5 29.9505 17.5H7.67326C6.93069 17.5 6.43564 18 6.43564 18.75V25C6.43564 29.125 8.41583 32.75 11.3861 35H5.19801C4.45544 35 3.96039 35.5 3.96039 36.25C3.96039 37 4.45544 37.5 5.19801 37.5H32.4257C33.1683 37.5 33.6634 37 33.6634 36.25C33.6634 35.5 33.1683 35 32.4257 35H26.2376C27.599 34 28.7129 32.75 29.4554 31.25H30.5693C33.6634 31.25 36.1386 28.75 36.1386 25.625C36.1386 22.75 33.9109 20.375 31.1881 20.125ZM27.8465 29.125C27.7228 29.25 27.599 29.5 27.599 29.625C25.8663 32.75 22.6485 34.875 18.9356 34.875C13.6139 35 9.28217 30.875 8.91088 25.625C10.1485 24.75 13.8614 22.75 18.1931 24.875C20.4208 26 22.5247 26.25 24.3812 26.25C26.1139 26.25 27.599 25.875 28.7129 25.625C28.5891 26.875 28.3416 28.125 27.8465 29.125ZM28.7129 23C27.3515 23.625 23.6386 24.75 19.3069 22.625C14.9752 20.5 11.1386 21.625 8.91088 22.75V20H28.7129V23ZM30.5693 28.75C30.9406 27.625 31.1881 26.25 31.1881 25V22.625C32.5495 22.875 33.6634 24.125 33.6634 25.625C33.6634 27.375 32.302 28.75 30.5693 28.75Z" fill="black"/>
<path d="M12.6238 13.75H16.3367C16.7079 13.75 16.9555 14 16.9555 14.375V15C16.9555 15.75 17.4505 16.25 18.1931 16.25C18.9357 16.25 19.4307 15.75 19.4307 15V14.375C19.4307 12.625 18.0693 11.25 16.3367 11.25H12.6238C12.2525 11.25 12.005 11 12.005 10.625C12.005 10.25 12.2525 10 12.6238 10H24.3812C26.4852 10 28.0941 8.375 28.0941 6.25C28.0941 4.125 26.4852 2.5 24.3812 2.5H12.005C11.2624 2.5 10.7673 3 10.7673 3.75C10.7673 4.5 11.2624 5 12.005 5H24.3812C25.1238 5 25.6188 5.5 25.6188 6.25C25.6188 7 25.1238 7.5 24.3812 7.5H12.6238C10.8911 7.5 9.52972 8.875 9.52972 10.625C9.52972 12.375 10.8911 13.75 12.6238 13.75Z" fill="#F0CF85"/>
</svg>
