<svg width="350" height="408" viewBox="0 0 350 408" fill="none" xmlns="http://www.w3.org/2000/svg">
<g opacity="0.5" clip-path="url(#clip0_183_752)" filter="url(#filter0_f_183_752)">
<g filter="url(#filter1_f_183_752)">
<path d="M199.607 229.743V216.15H186.014C142.391 216.15 107.029 251.513 107.029 295.135V308.728H120.622C164.243 308.729 199.607 273.366 199.607 229.743Z" fill="#BADB82" fill-opacity="0.4"/>
</g>
<g filter="url(#filter2_f_183_752)">
<path d="M328.006 224.243C321.998 213.322 310.968 206.801 298.503 206.801H274.347L283.588 156.671C283.967 154.614 283.412 152.494 282.074 150.887C280.737 149.28 278.753 148.351 276.66 148.351H29.9741C27.8827 148.351 25.8983 149.28 24.5601 150.887C23.2218 152.495 22.6671 154.614 23.0468 156.671L28.9436 188.655C29.6491 192.482 33.3233 195.011 37.1483 194.306C40.9741 193.6 43.5046 189.927 42.7991 186.101L38.4366 162.438H268.199L231.339 362.401H218.54C214.649 362.401 211.496 365.555 211.496 369.445C211.496 373.336 214.649 376.49 218.54 376.49H271.546C268.669 384.315 261.139 389.912 252.328 389.912H54.3061C45.496 389.912 37.9671 384.316 35.0897 376.49H198.554C202.446 376.49 205.599 373.336 205.599 369.445C205.599 365.555 202.446 362.401 198.554 362.401H75.2975L47.8085 213.282C47.1038 209.457 43.4327 206.926 39.6038 207.632C35.7772 208.337 33.2475 212.011 33.953 215.836L60.9701 362.401H26.7968C22.9062 362.401 19.7523 365.555 19.7523 369.445C19.7523 388.499 35.253 404 54.3061 404H252.328C271.381 404 286.882 388.499 286.882 369.445C286.882 365.555 283.729 362.401 279.838 362.401H245.664L252.098 327.499C272.568 326.095 291.035 315.164 302.134 297.652L326.946 258.5C333.619 247.971 334.015 235.165 328.006 224.243ZM315.046 250.958L290.234 290.11C282.222 302.752 269.294 310.992 254.762 313.047L271.75 220.889H298.504C305.754 220.889 312.168 224.682 315.663 231.033C319.158 237.386 318.927 244.835 315.046 250.958Z" fill="#A3B275"/>
</g>
<g filter="url(#filter3_f_183_752)">
<path d="M154.583 81.8195C154.583 89.5781 151.756 93.0648 147.843 97.8921C144.204 102.381 140.079 107.469 138.55 115.93C137.858 119.758 140.4 123.423 144.229 124.115C144.654 124.193 145.075 124.229 145.491 124.229C148.833 124.229 151.799 121.841 152.415 118.437C153.302 113.533 155.722 110.547 158.788 106.766C163.192 101.333 168.672 94.5718 168.672 81.821C168.672 69.0773 163.192 62.3203 158.789 56.8906C154.875 52.0656 152.048 48.5789 152.048 40.8227C152.048 33.0758 154.875 29.5891 158.786 24.7641C161.207 21.7798 163.95 18.3969 165.925 13.8626C167.48 10.2962 165.848 6.14463 162.282 4.58995C158.717 3.03526 154.564 4.66573 153.01 8.23291C151.799 11.011 149.966 13.272 147.843 15.8907C143.44 21.3212 137.959 28.0805 137.959 40.8219C137.959 53.5719 143.44 60.332 147.846 65.764C151.758 70.5859 154.583 74.0718 154.583 81.8195Z" fill="#A3B275"/>
</g>
<g filter="url(#filter4_f_183_752)">
<path d="M211.906 47.8655C215.797 47.8655 218.95 44.7117 218.95 40.821C218.95 33.0742 221.778 29.5882 225.689 24.7633C228.109 21.7789 230.853 18.3961 232.828 13.8617C234.383 10.2953 232.753 6.14376 229.186 4.58907C225.614 3.03361 221.467 4.66642 219.914 8.23203C218.702 11.0102 216.87 13.2711 214.746 15.8898C210.343 21.3203 204.862 28.0797 204.862 40.821C204.861 44.7117 208.016 47.8655 211.906 47.8655Z" fill="#A3B275"/>
</g>
<g filter="url(#filter5_f_183_752)">
<path d="M205.453 115.929C204.762 119.757 207.305 123.422 211.133 124.114C211.557 124.191 211.978 124.227 212.395 124.227C215.737 124.227 218.703 121.84 219.319 118.435C220.205 113.532 222.626 110.545 225.691 106.764C230.095 101.331 235.575 94.57 235.575 81.8193C235.575 69.0748 230.119 62.3474 225.735 56.9435C223.285 53.9232 218.85 53.4592 215.826 55.9107C212.804 58.3615 212.342 62.7982 214.792 65.8201C218.678 70.6099 221.485 74.0716 221.485 81.8208C221.485 89.5794 218.657 93.0661 214.745 97.8935C211.107 102.381 206.983 107.468 205.453 115.929Z" fill="#A3B275"/>
</g>
<g filter="url(#filter6_f_183_752)">
<path d="M87.681 81.8194C87.681 89.5764 84.8545 93.0631 80.9435 97.8897C77.3053 102.38 73.1803 107.469 71.6561 115.933C70.967 119.762 73.5108 123.425 77.3404 124.115C77.7631 124.19 78.1826 124.227 78.5975 124.227C81.9412 124.227 84.9084 121.836 85.5224 118.431C86.4053 113.528 88.8256 110.541 91.8896 106.76C96.292 101.328 101.769 94.5686 101.769 81.8194C101.769 69.0764 96.292 62.3194 91.8912 56.8897C87.9803 52.064 85.1537 48.5773 85.1537 40.821C85.1537 33.071 87.9787 29.5851 91.8888 24.7586C94.3068 21.7742 97.0466 18.3929 99.0224 13.8601C100.577 10.2937 98.9451 6.14219 95.3795 4.5875C91.8138 3.03282 87.6615 4.66329 86.1068 8.23047C84.8959 11.0086 83.0639 13.2695 80.9428 15.8875C76.5412 21.3179 71.0647 28.0781 71.0647 40.8187C71.0647 53.5679 76.5436 60.328 80.9459 65.7585C84.8568 70.585 87.681 74.0694 87.681 81.8194Z" fill="#A3B275"/>
</g>
<g filter="url(#filter7_f_183_752)">
<path d="M120.622 315.752C168.058 315.752 206.652 277.16 206.652 229.723V216.13C206.652 212.239 203.499 209.085 199.607 209.085H186.014C138.577 209.085 99.9841 247.678 99.9841 295.115V308.708C99.9841 312.599 103.138 315.752 107.029 315.752H120.622ZM186.014 223.174H192.563V229.723C192.563 268.216 162.172 299.742 124.125 301.574L173.711 251.988C176.461 249.238 176.461 244.778 173.711 242.027C170.96 239.276 166.499 239.276 163.749 242.027L114.163 291.613C115.996 253.566 147.519 223.174 186.014 223.174Z" fill="#A3B275"/>
</g>
</g>
<defs>
<filter id="filter0_f_183_752" x="-28" y="0" width="408" height="408" filterUnits="userSpaceOnUse" color-interpolation-filters="sRGB">
<feFlood flood-opacity="0" result="BackgroundImageFix"/>
<feBlend mode="normal" in="SourceGraphic" in2="BackgroundImageFix" result="shape"/>
<feGaussianBlur stdDeviation="2" result="effect1_foregroundBlur_183_752"/>
</filter>
<filter id="filter1_f_183_752" x="103.029" y="212.15" width="100.578" height="100.578" filterUnits="userSpaceOnUse" color-interpolation-filters="sRGB">
<feFlood flood-opacity="0" result="BackgroundImageFix"/>
<feBlend mode="normal" in="SourceGraphic" in2="BackgroundImageFix" result="shape"/>
<feGaussianBlur stdDeviation="2" result="effect1_foregroundBlur_183_752"/>
</filter>
<filter id="filter2_f_183_752" x="15.7523" y="144.351" width="320.495" height="263.649" filterUnits="userSpaceOnUse" color-interpolation-filters="sRGB">
<feFlood flood-opacity="0" result="BackgroundImageFix"/>
<feBlend mode="normal" in="SourceGraphic" in2="BackgroundImageFix" result="shape"/>
<feGaussianBlur stdDeviation="2" result="effect1_foregroundBlur_183_752"/>
</filter>
<filter id="filter3_f_183_752" x="133.959" y="0.0012207" width="38.7132" height="128.228" filterUnits="userSpaceOnUse" color-interpolation-filters="sRGB">
<feFlood flood-opacity="0" result="BackgroundImageFix"/>
<feBlend mode="normal" in="SourceGraphic" in2="BackgroundImageFix" result="shape"/>
<feGaussianBlur stdDeviation="2" result="effect1_foregroundBlur_183_752"/>
</filter>
<filter id="filter4_f_183_752" x="200.862" y="0.000244141" width="36.5551" height="51.8652" filterUnits="userSpaceOnUse" color-interpolation-filters="sRGB">
<feFlood flood-opacity="0" result="BackgroundImageFix"/>
<feBlend mode="normal" in="SourceGraphic" in2="BackgroundImageFix" result="shape"/>
<feGaussianBlur stdDeviation="2" result="effect1_foregroundBlur_183_752"/>
</filter>
<filter id="filter5_f_183_752" x="201.34" y="50.3369" width="38.2352" height="77.8901" filterUnits="userSpaceOnUse" color-interpolation-filters="sRGB">
<feFlood flood-opacity="0" result="BackgroundImageFix"/>
<feBlend mode="normal" in="SourceGraphic" in2="BackgroundImageFix" result="shape"/>
<feGaussianBlur stdDeviation="2" result="effect1_foregroundBlur_183_752"/>
</filter>
<filter id="filter6_f_183_752" x="67.0647" y="-0.0012207" width="38.7046" height="128.228" filterUnits="userSpaceOnUse" color-interpolation-filters="sRGB">
<feFlood flood-opacity="0" result="BackgroundImageFix"/>
<feBlend mode="normal" in="SourceGraphic" in2="BackgroundImageFix" result="shape"/>
<feGaussianBlur stdDeviation="2" result="effect1_foregroundBlur_183_752"/>
</filter>
<filter id="filter7_f_183_752" x="95.9841" y="205.085" width="114.668" height="114.667" filterUnits="userSpaceOnUse" color-interpolation-filters="sRGB">
<feFlood flood-opacity="0" result="BackgroundImageFix"/>
<feBlend mode="normal" in="SourceGraphic" in2="BackgroundImageFix" result="shape"/>
<feGaussianBlur stdDeviation="2" result="effect1_foregroundBlur_183_752"/>
</filter>
<clipPath id="clip0_183_752">
<rect width="400" height="400" fill="white" transform="translate(-24 4)"/>
</clipPath>
</defs>
</svg>
